<svg width="23" height="23" viewBox="0 0 23 23" fill="none" xmlns="http://www.w3.org/2000/svg">
<path d="M19.09 20.1683H21.85V22.4799H14.95V15.5452H17.25V18.7005C19.3545 17.0015 20.7 14.4126 20.7 11.5C20.7 6.79598 17.181 2.901 12.65 2.33467V0C18.4575 0.577889 23 5.50151 23 11.5C23 14.9558 21.482 18.0533 19.09 20.1683ZM2.3 11.5C2.3 8.58744 3.6455 5.98693 5.75 4.2995V7.45477H8.05V0.5201H1.15V2.83166H3.91C1.518 4.94673 0 8.04422 0 11.5C0 17.4985 4.5425 22.4221 10.35 23V20.6653C5.819 20.099 2.3 16.204 2.3 11.5ZM16.376 7.00402L9.867 13.5457L6.6125 10.2749L4.991 11.9045L9.867 16.805L17.9975 8.63367L16.376 7.00402Z" fill="#104C91"/>
</svg>
