<svg width="23" height="23" viewBox="0 0 23 23" fill="none" xmlns="http://www.w3.org/2000/svg">
<path d="M12.0777 7.05151H10.3429V13.8866L15.8364 17.1332L16.7038 15.732L12.0777 13.0322V7.05151ZM17.6718 0L23 4.38014L21.5196 6.12878L16.188 1.75092L17.6718 0ZM5.327 0L6.80967 1.74978L1.48036 6.12878L0 4.379L5.327 0ZM11.4994 2.4948C5.75145 2.4948 1.09061 7.08569 1.09061 12.7474C1.09061 18.4091 5.75145 23 11.4994 23C17.2474 23 21.9082 18.4091 21.9082 12.7474C21.9082 7.08569 17.2474 2.4948 11.4994 2.4948ZM11.4994 20.7216C7.0352 20.7216 3.40368 17.1446 3.40368 12.7474C3.40368 8.35017 7.0352 4.77316 11.4994 4.77316C15.9636 4.77316 19.5952 8.35017 19.5952 12.7474C19.5952 17.1446 15.9636 20.7216 11.4994 20.7216Z" fill="#104C91"/>
</svg>
