<svg width="319" height="50" viewBox="0 0 319 50" fill="none" xmlns="http://www.w3.org/2000/svg">
<rect width="319" height="50" rx="25" fill="white" fill-opacity="0.6"/>
<path d="M22 18.5C23.2025 18.5 24.1667 17.525 24.1667 16.3333C24.1667 15.9217 24.0583 15.5425 23.8525 15.2175L22 12L20.1475 15.2175C19.9417 15.5425 19.8333 15.9217 19.8333 16.3333C19.8333 17.525 20.8083 18.5 22 18.5ZM28.5 21.75H23.0833V19.5833H20.9167V21.75H15.5C13.7017 21.75 12.25 23.2017 12.25 25V34.75C12.25 35.3458 12.7375 35.8333 13.3333 35.8333H30.6667C31.2625 35.8333 31.75 35.3458 31.75 34.75V25C31.75 23.2017 30.2983 21.75 28.5 21.75ZM29.5833 33.6667H14.4167V30.4167C15.3917 30.4058 16.3233 30.0158 17.0167 29.3225L18.1975 28.1633L19.3567 29.3225C20.7758 30.7417 23.2458 30.7308 24.6542 29.3225L25.8242 28.1633L26.9833 29.3225C27.6767 30.0158 28.6083 30.4058 29.5833 30.4167V33.6667V33.6667ZM29.5833 28.7917C29.0308 28.7808 28.5108 28.575 28.1208 28.1742L25.8133 25.8667L23.495 28.1742C22.6933 28.9758 21.2958 28.9758 20.4942 28.1742L18.1867 25.8667L15.8683 28.1742C15.4892 28.5642 14.9692 28.7808 14.4167 28.7917V25C14.4167 24.4042 14.9042 23.9167 15.5 23.9167H28.5C29.0958 23.9167 29.5833 24.4042 29.5833 25V28.7917Z" fill="#FF9184" fill-opacity="0.6"/>
</svg>
