<svg width="319" height="50" viewBox="0 0 319 50" fill="none" xmlns="http://www.w3.org/2000/svg">
<rect width="319" height="50" rx="25" fill="white" fill-opacity="0.6"/>
<path d="M25 25C27.21 25 29 23.21 29 21C29 18.79 27.21 17 25 17C22.79 17 21 18.79 21 21C21 23.21 22.79 25 25 25ZM25 19C26.1 19 27 19.9 27 21C27 22.1 26.1 23 25 23C23.9 23 23 22.1 23 21C23 19.9 23.9 19 25 19ZM25 27C22.33 27 17 28.34 17 31V33H33V31C33 28.34 27.67 27 25 27ZM19 31C19.22 30.28 22.31 29 25 29C27.7 29 30.8 30.29 31 31H19ZM16 28V25H19V23H16V20H14V23H11V25H14V28H16Z" fill="#FF9184" fill-opacity="0.6"/>
</svg>
