<svg width="89" height="89" viewBox="0 0 89 89" fill="none" xmlns="http://www.w3.org/2000/svg">
<g filter="url(#filter0_di_2_90)">
<circle cx="39.5" cy="39.5" r="39.5" fill="#F3F8FC"/>
<path d="M30.2148 54V49.8867C31.7852 47.7773 33.3086 46.0781 34.7852 44.7891L36.9121 42.9082C38.4355 41.5605 39.6895 40.2305 40.6738 38.918C41.6699 37.5938 42.168 36.2109 42.168 34.7695C42.168 33.4688 41.7461 32.4668 40.9023 31.7637C40.0703 31.0488 38.9395 30.6914 37.5098 30.6914C35.6113 30.6914 33.4023 31.3359 30.8828 32.625V28.8105C33.5312 27.8262 36.0918 27.334 38.5645 27.334C41.2949 27.334 43.498 27.9902 45.1738 29.3027C46.8613 30.6035 47.7051 32.3496 47.7051 34.541C47.7051 35.9238 47.3477 37.2305 46.6328 38.4609C45.9297 39.6797 44.459 41.1914 42.2207 42.9961L40.4629 44.4023C39.6895 45.0234 38.8398 45.8203 37.9141 46.793C37 47.7656 36.3965 48.7969 36.1035 49.8867H47.5996V54H30.2148Z" fill="#191B28"/>
</g>
<defs>
<filter id="filter0_di_2_90" x="-4" y="-4" width="93" height="93" filterUnits="userSpaceOnUse" color-interpolation-filters="sRGB">
<feFlood flood-opacity="0" result="BackgroundImageFix"/>
<feColorMatrix in="SourceAlpha" type="matrix" values="0 0 0 0 0 0 0 0 0 0 0 0 0 0 0 0 0 0 127 0" result="hardAlpha"/>
<feOffset dx="6" dy="6"/>
<feGaussianBlur stdDeviation="2"/>
<feComposite in2="hardAlpha" operator="out"/>
<feColorMatrix type="matrix" values="0 0 0 0 0 0 0 0 0 0 0 0 0 0 0 0 0 0 0.25 0"/>
<feBlend mode="normal" in2="BackgroundImageFix" result="effect1_dropShadow_2_90"/>
<feBlend mode="normal" in="SourceGraphic" in2="effect1_dropShadow_2_90" result="shape"/>
<feColorMatrix in="SourceAlpha" type="matrix" values="0 0 0 0 0 0 0 0 0 0 0 0 0 0 0 0 0 0 127 0" result="hardAlpha"/>
<feOffset dx="-4" dy="-4"/>
<feGaussianBlur stdDeviation="2"/>
<feComposite in2="hardAlpha" operator="arithmetic" k2="-1" k3="1"/>
<feColorMatrix type="matrix" values="0 0 0 0 0 0 0 0 0 0 0 0 0 0 0 0 0 0 0.25 0"/>
<feBlend mode="normal" in2="shape" result="effect2_innerShadow_2_90"/>
</filter>
</defs>
</svg>
