<svg width="89" height="89" viewBox="0 0 89 89" fill="none" xmlns="http://www.w3.org/2000/svg">
<g filter="url(#filter0_di_4_121)">
<circle cx="39.5" cy="39.5" r="39.5" fill="#53C9E0"/>
</g>
<path d="M27.1094 52.6504L47.5703 25.334H51.0859L30.6426 52.6504H27.1094ZM31.627 38.9922C29.7051 38.9922 28.1934 38.418 27.0918 37.2695C25.9902 36.1094 25.4395 34.5156 25.4395 32.4883C25.4395 30.4609 25.9902 28.873 27.0918 27.7246C28.1934 26.5645 29.7051 25.9844 31.627 25.9844C33.5605 25.9844 35.0723 26.5703 36.1621 27.7422C37.252 28.9141 37.7969 30.4375 37.7969 32.3125C37.7969 34.4805 37.2402 36.1387 36.127 37.2871C35.0254 38.4238 33.5254 38.9922 31.627 38.9922ZM31.627 36.3906C32.3066 36.3906 32.8516 36.0625 33.2617 35.4062C33.6836 34.7383 33.8945 33.7656 33.8945 32.4883C33.8945 31.2109 33.6836 30.2441 33.2617 29.5879C32.8516 28.9199 32.3066 28.5859 31.627 28.5859C30.9355 28.5859 30.3789 28.9199 29.957 29.5879C29.5469 30.2441 29.3418 31.2109 29.3418 32.4883C29.3418 33.7656 29.5469 34.7383 29.957 35.4062C30.3789 36.0625 30.9355 36.3906 31.627 36.3906ZM46.5859 52C44.6641 52 43.1523 51.4258 42.0508 50.2773C40.9492 49.1172 40.3984 47.5234 40.3984 45.4961C40.3984 43.4688 40.9492 41.8809 42.0508 40.7324C43.1523 39.5723 44.6641 38.9922 46.5859 38.9922C48.5195 38.9922 50.0312 39.5781 51.1211 40.75C52.2227 41.9219 52.7734 43.4453 52.7734 45.3203C52.7734 47.4883 52.2168 49.1465 51.1035 50.2949C49.9902 51.4316 48.4844 52 46.5859 52ZM46.5859 49.3984C47.2656 49.3984 47.8105 49.0703 48.2207 48.4141C48.6426 47.7461 48.8535 46.7734 48.8535 45.4961C48.8535 44.2188 48.6426 43.252 48.2207 42.5957C47.8105 41.9277 47.2656 41.5938 46.5859 41.5938C45.9062 41.5938 45.3555 41.9277 44.9336 42.5957C44.5117 43.252 44.3008 44.2188 44.3008 45.4961C44.3008 46.7734 44.5117 47.7461 44.9336 48.4141C45.3555 49.0703 45.9062 49.3984 46.5859 49.3984Z" fill="#F3F8FC"/>
<defs>
<filter id="filter0_di_4_121" x="-4" y="-4" width="93" height="93" filterUnits="userSpaceOnUse" color-interpolation-filters="sRGB">
<feFlood flood-opacity="0" result="BackgroundImageFix"/>
<feColorMatrix in="SourceAlpha" type="matrix" values="0 0 0 0 0 0 0 0 0 0 0 0 0 0 0 0 0 0 127 0" result="hardAlpha"/>
<feOffset dx="6" dy="6"/>
<feGaussianBlur stdDeviation="2"/>
<feComposite in2="hardAlpha" operator="out"/>
<feColorMatrix type="matrix" values="0 0 0 0 0 0 0 0 0 0 0 0 0 0 0 0 0 0 0.25 0"/>
<feBlend mode="normal" in2="BackgroundImageFix" result="effect1_dropShadow_4_121"/>
<feBlend mode="normal" in="SourceGraphic" in2="effect1_dropShadow_4_121" result="shape"/>
<feColorMatrix in="SourceAlpha" type="matrix" values="0 0 0 0 0 0 0 0 0 0 0 0 0 0 0 0 0 0 127 0" result="hardAlpha"/>
<feOffset dx="-4" dy="-4"/>
<feGaussianBlur stdDeviation="2"/>
<feComposite in2="hardAlpha" operator="arithmetic" k2="-1" k3="1"/>
<feColorMatrix type="matrix" values="0 0 0 0 0 0 0 0 0 0 0 0 0 0 0 0 0 0 0.25 0"/>
<feBlend mode="normal" in2="shape" result="effect2_innerShadow_4_121"/>
</filter>
</defs>
</svg>
