<svg width="68" height="48" viewBox="0 0 68 48" fill="none" xmlns="http://www.w3.org/2000/svg">
<g filter="url(#filter0_d_6_82)">
<rect x="4" width="60" height="40" rx="20" fill="#53C9E0"/>
<path d="M34 16.4545C35.95 16.4545 37.5455 18.05 37.5455 20C37.5455 21.95 35.95 23.5455 34 23.5455C32.05 23.5455 30.4545 21.95 30.4545 20C30.4545 18.05 32.05 16.4545 34 16.4545ZM34 14.0909C30.7382 14.0909 28.0909 16.7382 28.0909 20C28.0909 23.2618 30.7382 25.9091 34 25.9091C37.2618 25.9091 39.9091 23.2618 39.9091 20C39.9091 16.7382 37.2618 14.0909 34 14.0909ZM22.1818 21.1818H24.5455C25.1955 21.1818 25.7273 20.65 25.7273 20C25.7273 19.35 25.1955 18.8182 24.5455 18.8182H22.1818C21.5318 18.8182 21 19.35 21 20C21 20.65 21.5318 21.1818 22.1818 21.1818ZM43.4545 21.1818H45.8182C46.4682 21.1818 47 20.65 47 20C47 19.35 46.4682 18.8182 45.8182 18.8182H43.4545C42.8045 18.8182 42.2727 19.35 42.2727 20C42.2727 20.65 42.8045 21.1818 43.4545 21.1818ZM32.8182 8.18182V10.5455C32.8182 11.1955 33.35 11.7273 34 11.7273C34.65 11.7273 35.1818 11.1955 35.1818 10.5455V8.18182C35.1818 7.53182 34.65 7 34 7C33.35 7 32.8182 7.53182 32.8182 8.18182ZM32.8182 29.4545V31.8182C32.8182 32.4682 33.35 33 34 33C34.65 33 35.1818 32.4682 35.1818 31.8182V29.4545C35.1818 28.8045 34.65 28.2727 34 28.2727C33.35 28.2727 32.8182 28.8045 32.8182 29.4545ZM26.8973 11.2309C26.4364 10.77 25.68 10.77 25.2309 11.2309C24.77 11.6918 24.77 12.4482 25.2309 12.8973L26.4836 14.15C26.9445 14.6109 27.7009 14.6109 28.15 14.15C28.5991 13.6891 28.6109 12.9327 28.15 12.4836L26.8973 11.2309ZM41.5164 25.85C41.0555 25.3891 40.2991 25.3891 39.85 25.85C39.3891 26.3109 39.3891 27.0673 39.85 27.5164L41.1027 28.7691C41.5636 29.23 42.32 29.23 42.7691 28.7691C43.23 28.3082 43.23 27.5518 42.7691 27.1027L41.5164 25.85ZM42.7691 12.8973C43.23 12.4364 43.23 11.68 42.7691 11.2309C42.3082 10.77 41.5518 10.77 41.1027 11.2309L39.85 12.4836C39.3891 12.9445 39.3891 13.7009 39.85 14.15C40.3109 14.5991 41.0673 14.6109 41.5164 14.15L42.7691 12.8973ZM28.15 27.5164C28.6109 27.0555 28.6109 26.2991 28.15 25.85C27.6891 25.3891 26.9327 25.3891 26.4836 25.85L25.2309 27.1027C24.77 27.5636 24.77 28.32 25.2309 28.7691C25.6918 29.2182 26.4482 29.23 26.8973 28.7691L28.15 27.5164Z" fill="#191B28"/>
</g>
<defs>
<filter id="filter0_d_6_82" x="0" y="0" width="68" height="48" filterUnits="userSpaceOnUse" color-interpolation-filters="sRGB">
<feFlood flood-opacity="0" result="BackgroundImageFix"/>
<feColorMatrix in="SourceAlpha" type="matrix" values="0 0 0 0 0 0 0 0 0 0 0 0 0 0 0 0 0 0 127 0" result="hardAlpha"/>
<feOffset dy="4"/>
<feGaussianBlur stdDeviation="2"/>
<feComposite in2="hardAlpha" operator="out"/>
<feColorMatrix type="matrix" values="0 0 0 0 0 0 0 0 0 0 0 0 0 0 0 0 0 0 0.25 0"/>
<feBlend mode="normal" in2="BackgroundImageFix" result="effect1_dropShadow_6_82"/>
<feBlend mode="normal" in="SourceGraphic" in2="effect1_dropShadow_6_82" result="shape"/>
</filter>
</defs>
</svg>
